<svg version="1.1" viewBox="0.0 0.0 600.0 514.0" fill="none" stroke="none" stroke-linecap="square" stroke-miterlimit="10" width="600" height="514" xmlns:xlink="http://www.w3.org/1999/xlink" xmlns="http://www.w3.org/2000/svg"><path fill="#ffffff" d="M0 0L600.0 0L600.0 514.0L0 514.0L0 0Z" fill-rule="nonzero"/><path stroke="#333333" stroke-width="1.0" stroke-linecap="butt" d="M94.5 73.5L94.5 436.5" fill-rule="nonzero"/><path stroke="#cccccc" stroke-width="1.0" stroke-linecap="butt" d="M211.5 73.5L211.5 436.5" fill-rule="nonzero"/><path stroke="#cccccc" stroke-width="1.0" stroke-linecap="butt" d="M329.5 73.5L329.5 436.5" fill-rule="nonzero"/><path stroke="#cccccc" stroke-width="1.0" stroke-linecap="butt" d="M447.5 73.5L447.5 436.5" fill-rule="nonzero"/><path stroke="#cccccc" stroke-width="1.0" stroke-linecap="butt" d="M564.5 73.5L564.5 436.5" fill-rule="nonzero"/><path stroke="#333333" stroke-width="1.0" stroke-linecap="butt" d="M84.5 436.5L574.5 436.5" fill-rule="nonzero"/><path stroke="#cccccc" stroke-width="1.0" stroke-linecap="butt" d="M84.5 345.5L574.5 345.5" fill-rule="nonzero"/><path stroke="#cccccc" stroke-width="1.0" stroke-linecap="butt" d="M84.5 255.5L574.5 255.5" fill-rule="nonzero"/><path stroke="#cccccc" stroke-width="1.0" stroke-linecap="butt" d="M84.5 164.5L574.5 164.5" fill-rule="nonzero"/><path stroke="#cccccc" stroke-width="1.0" stroke-linecap="butt" d="M84.5 73.5L574.5 73.5" fill-rule="nonzero"/><clipPath id="id_0"><path d="M84.7 73.833336L574.3 73.833336L574.3 436.3L84.7 436.3L84.7 73.833336Z" clip-rule="nonzero"/></clipPath><path stroke="#4285f4" stroke-width="2.0" stroke-linecap="butt" clip-path="url(#id_0)" d="M94.30753 73.833336L94.30753 81.082664L103.71523 99.206L108.41908 110.08L117.82678 128.20334L131.93832 168.07466L155.45758 258.69135L169.56912 313.06134L178.97682 345.68332L183.68068 378.30533L329.5 400.05334L564.69244 400.05334" fill-rule="nonzero"/><path fill="#4285f4" clip-path="url(#id_0)" d="M100.30753 73.833336C100.30753 77.14704 97.62125 79.833336 94.30753 79.833336C90.99383 79.833336 88.30753 77.14704 88.30753 73.833336C88.30753 70.51962 90.99383 67.833336 94.30753 67.833336C97.62125 67.833336 100.30753 70.51962 100.30753 73.833336Z" fill-rule="nonzero"/><path fill="#4285f4" clip-path="url(#id_0)" d="M100.30753 81.082664C100.30753 84.39638 97.62125 87.082664 94.30753 87.082664C90.99383 87.082664 88.30753 84.39638 88.30753 81.082664C88.30753 77.76896 90.99383 75.082664 94.30753 75.082664C97.62125 75.082664 100.30753 77.76896 100.30753 81.082664Z" fill-rule="nonzero"/><path fill="#4285f4" clip-path="url(#id_0)" d="M109.71523 99.206C109.71523 102.51971 107.028946 105.206 103.71523 105.206C100.40153 105.206 97.71523 102.51971 97.71523 99.206C97.71523 95.89229 100.40153 93.206 103.71523 93.206C107.028946 93.206 109.71523 95.89229 109.71523 99.206Z" fill-rule="nonzero"/><path fill="#4285f4" clip-path="url(#id_0)" d="M114.41908 110.08C114.41908 113.39371 111.73279 116.08 108.41908 116.08C105.10538 116.08 102.41908 113.39371 102.41908 110.08C102.41908 106.76629 105.10538 104.08 108.41908 104.08C111.73279 104.08 114.41908 106.76629 114.41908 110.08Z" fill-rule="nonzero"/><path fill="#4285f4" clip-path="url(#id_0)" d="M123.82678 128.20334C123.82678 131.51704 121.14049 134.20334 117.82678 134.20334C114.51308 134.20334 111.82678 131.51704 111.82678 128.20334C111.82678 124.889626 114.51308 122.20333 117.82678 122.20333C121.14049 122.20333 123.82678 124.889626 123.82678 128.20334Z" fill-rule="nonzero"/><path fill="#4285f4" clip-path="url(#id_0)" d="M137.93832 168.07466C137.93832 171.38838 135.25204 174.07466 131.93832 174.07466C128.62462 174.07466 125.93833 171.38838 125.93833 168.07466C125.93833 164.76096 128.62462 162.07466 131.93832 162.07466C135.25204 162.07466 137.93832 164.76096 137.93832 168.07466Z" fill-rule="nonzero"/><path fill="#4285f4" clip-path="url(#id_0)" d="M161.45758 258.69135C161.45758 262.00504 158.77129 264.69135 155.45758 264.69135C152.14388 264.69135 149.45758 262.00504 149.45758 258.69135C149.45758 255.37762 152.14388 252.69133 155.45758 252.69133C158.77129 252.69133 161.45758 255.37762 161.45758 258.69135Z" fill-rule="nonzero"/><path fill="#4285f4" clip-path="url(#id_0)" d="M175.56912 313.06134C175.56912 316.37503 172.88283 319.06134 169.56912 319.06134C166.25542 319.06134 163.56912 316.37503 163.56912 313.06134C163.56912 309.74762 166.25542 307.06134 169.56912 307.06134C172.88283 307.06134 175.56912 309.74762 175.56912 313.06134Z" fill-rule="nonzero"/><path fill="#4285f4" clip-path="url(#id_0)" d="M184.97682 345.68332C184.97682 348.99704 182.29053 351.68332 178.97682 351.68332C175.66312 351.68332 172.97682 348.99704 172.97682 345.68332C172.97682 342.36963 175.66312 339.68332 178.97682 339.68332C182.29053 339.68332 184.97682 342.36963 184.97682 345.68332Z" fill-rule="nonzero"/><path fill="#4285f4" clip-path="url(#id_0)" d="M189.68068 378.30533C189.68068 381.61905 186.99438 384.30533 183.68068 384.30533C180.36696 384.30533 177.68068 381.61905 177.68068 378.30533C177.68068 374.99164 180.36696 372.30533 183.68068 372.30533C186.99438 372.30533 189.68068 374.99164 189.68068 378.30533Z" fill-rule="nonzero"/><path fill="#4285f4" clip-path="url(#id_0)" d="M335.5 400.05334C335.5 403.36703 332.81372 406.05334 329.5 406.05334C326.18628 406.05334 323.5 403.36703 323.5 400.05334C323.5 396.73962 326.18628 394.05334 329.5 394.05334C332.81372 394.05334 335.5 396.73962 335.5 400.05334Z" fill-rule="nonzero"/><path fill="#4285f4" clip-path="url(#id_0)" d="M570.69244 400.05334C570.69244 403.36703 568.00616 406.05334 564.69244 406.05334C561.3788 406.05334 558.69244 403.36703 558.69244 400.05334C558.69244 396.73962 561.3788 394.05334 564.69244 394.05334C568.00616 394.05334 570.69244 396.73962 570.69244 400.05334Z" fill-rule="nonzero"/><path fill="#000000" d="M302.875 483.4406L303.90625 483.28436Q304.0 483.90936 304.39062 484.2375Q304.79688 484.5656 305.53125 484.5656Q306.25 484.5656 306.59375 484.28436Q306.95312 483.9875 306.95312 483.58124Q306.95312 483.22186 306.64062 483.01874Q306.42188 482.8781 305.5625 482.65936Q304.40625 482.3625 303.95312 482.15936Q303.51562 481.9406 303.28125 481.5656Q303.04688 481.1906 303.04688 480.72186Q303.04688 480.3156 303.23438 479.95624Q303.42188 479.59686 303.75 479.3625Q304.0 479.1906 304.42188 479.0656Q304.84375 478.9406 305.34375 478.9406Q306.0625 478.9406 306.60938 479.15936Q307.17188 479.3625 307.4375 479.72186Q307.70312 480.08124 307.79688 480.675L306.76562 480.8156Q306.70312 480.34686 306.35938 480.08124Q306.03125 479.8 305.40625 479.8Q304.6875 479.8 304.375 480.05Q304.0625 480.28436 304.0625 480.6125Q304.0625 480.8156 304.1875 480.97186Q304.32812 481.14374 304.59375 481.2531Q304.75 481.3156 305.53125 481.51874Q306.65625 481.83124 307.09375 482.01874Q307.53125 482.20624 307.78125 482.5656Q308.03125 482.925 308.03125 483.47186Q308.03125 484.0031 307.71875 484.47186Q307.42188 484.925 306.84375 485.1906Q306.26562 485.4406 305.53125 485.4406Q304.3125 485.4406 303.67188 484.9406Q303.04688 484.425 302.875 483.4406ZM313.35938 484.53436Q312.76562 485.03436 312.21875 485.2375Q311.6875 485.4406 311.0625 485.4406Q310.03125 485.4406 309.48438 484.9406Q308.9375 484.4406 308.9375 483.65936Q308.9375 483.20624 309.14062 482.83124Q309.34375 482.4406 309.6875 482.22186Q310.03125 481.9875 310.45312 481.8781Q310.75 481.78436 311.39062 481.70624Q312.65625 481.5656 313.26562 481.34686Q313.26562 481.1281 313.26562 481.08124Q313.26562 480.425 312.96875 480.15936Q312.5625 479.8156 311.76562 479.8156Q311.03125 479.8156 310.67188 480.08124Q310.3125 480.33124 310.14062 480.9875L309.10938 480.84686Q309.25 480.1906 309.57812 479.78436Q309.90625 479.3781 310.51562 479.15936Q311.125 478.9406 311.92188 478.9406Q312.71875 478.9406 313.21875 479.1281Q313.71875 479.3156 313.95312 479.59686Q314.1875 479.8781 314.28125 480.3156Q314.32812 480.58124 314.32812 481.28436L314.32812 482.6906Q314.32812 484.15936 314.39062 484.55Q314.46875 484.9406 314.67188 485.3L313.5625 485.3Q313.40625 484.97186 313.35938 484.53436ZM313.26562 482.175Q312.6875 482.40936 311.54688 482.58124Q310.89062 482.675 310.625 482.8Q310.35938 482.90936 310.20312 483.1281Q310.0625 483.34686 310.0625 483.6281Q310.0625 484.05 310.375 484.33124Q310.70312 484.6125 311.3125 484.6125Q311.92188 484.6125 312.39062 484.34686Q312.875 484.08124 313.09375 483.6125Q313.26562 483.2531 313.26562 482.5656L313.26562 482.175ZM318.59375 484.3625L318.75 485.28436Q318.29688 485.3781 317.95312 485.3781Q317.375 485.3781 317.0625 485.20624Q316.75 485.01874 316.60938 484.72186Q316.48438 484.425 316.48438 483.47186L316.48438 479.89374L315.71875 479.89374L315.71875 479.08124L316.48438 479.08124L316.48438 477.53436L317.53125 476.90936L317.53125 479.08124L318.59375 479.08124L318.59375 479.89374L317.53125 479.89374L317.53125 483.53436Q317.53125 483.9875 317.57812 484.1125Q317.64062 484.2375 317.76562 484.3156Q317.89062 484.39374 318.125 484.39374Q318.3125 484.39374 318.59375 484.3625ZM323.375 485.3L323.375 484.3781Q322.64062 485.4406 321.39062 485.4406Q320.84375 485.4406 320.35938 485.2375Q319.89062 485.01874 319.65625 484.70624Q319.42188 484.3781 319.32812 483.90936Q319.26562 483.6125 319.26562 482.925L319.26562 479.08124L320.32812 479.08124L320.32812 482.53436Q320.32812 483.34686 320.39062 483.64374Q320.48438 484.05 320.79688 484.3Q321.125 484.53436 321.60938 484.53436Q322.07812 484.53436 322.48438 484.3Q322.90625 484.05 323.07812 483.6281Q323.26562 483.20624 323.26562 482.40936L323.26562 479.08124L324.3125 479.08124L324.3125 485.3L323.375 485.3ZM326.28125 485.3L326.28125 479.08124L327.23438 479.08124L327.23438 480.01874Q327.59375 479.3625 327.89062 479.15936Q328.20312 478.9406 328.57812 478.9406Q329.10938 478.9406 329.65625 479.26874L329.29688 480.2531Q328.90625 480.01874 328.53125 480.01874Q328.17188 480.01874 327.89062 480.2375Q327.625 480.4406 327.51562 480.8156Q327.32812 481.3781 327.32812 482.03436L327.32812 485.3L326.28125 485.3ZM334.35938 484.53436Q333.76562 485.03436 333.21875 485.2375Q332.6875 485.4406 332.0625 485.4406Q331.03125 485.4406 330.48438 484.9406Q329.9375 484.4406 329.9375 483.65936Q329.9375 483.20624 330.14062 482.83124Q330.34375 482.4406 330.6875 482.22186Q331.03125 481.9875 331.45312 481.8781Q331.75 481.78436 332.39062 481.70624Q333.65625 481.5656 334.26562 481.34686Q334.26562 481.1281 334.26562 481.08124Q334.26562 480.425 333.96875 480.15936Q333.5625 479.8156 332.76562 479.8156Q332.03125 479.8156 331.67188 480.08124Q331.3125 480.33124 331.14062 480.9875L330.10938 480.84686Q330.25 480.1906 330.57812 479.78436Q330.90625 479.3781 331.51562 479.15936Q332.125 478.9406 332.92188 478.9406Q333.71875 478.9406 334.21875 479.1281Q334.71875 479.3156 334.95312 479.59686Q335.1875 479.8781 335.28125 480.3156Q335.32812 480.58124 335.32812 481.28436L335.32812 482.6906Q335.32812 484.15936 335.39062 484.55Q335.46875 484.9406 335.67188 485.3L334.5625 485.3Q334.40625 484.97186 334.35938 484.53436ZM334.26562 482.175Q333.6875 482.40936 332.54688 482.58124Q331.89062 482.675 331.625 482.8Q331.35938 482.90936 331.20312 483.1281Q331.0625 483.34686 331.0625 483.6281Q331.0625 484.05 331.375 484.33124Q331.70312 484.6125 332.3125 484.6125Q332.92188 484.6125 333.39062 484.34686Q333.875 484.08124 334.09375 483.6125Q334.26562 483.2531 334.26562 482.5656L334.26562 482.175ZM339.59375 484.3625L339.75 485.28436Q339.29688 485.3781 338.95312 485.3781Q338.375 485.3781 338.0625 485.20624Q337.75 485.01874 337.60938 484.72186Q337.48438 484.425 337.48438 483.47186L337.48438 479.89374L336.71875 479.89374L336.71875 479.08124L337.48438 479.08124L337.48438 477.53436L338.53125 476.90936L338.53125 479.08124L339.59375 479.08124L339.59375 479.89374L338.53125 479.89374L338.53125 483.53436Q338.53125 483.9875 338.57812 484.1125Q338.64062 484.2375 338.76562 484.3156Q338.89062 484.39374 339.125 484.39374Q339.3125 484.39374 339.59375 484.3625ZM340.29688 477.925L340.29688 476.70624L341.35938 476.70624L341.35938 477.925L340.29688 477.925ZM340.29688 485.3L340.29688 479.08124L341.35938 479.08124L341.35938 485.3L340.29688 485.3ZM342.90625 482.1906Q342.90625 480.45624 343.85938 479.6281Q344.65625 478.9406 345.8125 478.9406Q347.09375 478.9406 347.90625 479.78436Q348.73438 480.6125 348.73438 482.09686Q348.73438 483.3 348.375 483.9875Q348.01562 484.675 347.3125 485.0656Q346.625 485.4406 345.8125 485.4406Q344.51562 485.4406 343.70312 484.6125Q342.90625 483.76874 342.90625 482.1906ZM343.98438 482.1906Q343.98438 483.3781 344.5 483.97186Q345.03125 484.5656 345.8125 484.5656Q346.60938 484.5656 347.125 483.97186Q347.64062 483.3781 347.64062 482.15936Q347.64062 481.0031 347.10938 480.40936Q346.59375 479.8156 345.8125 479.8156Q345.03125 479.8156 344.5 480.40936Q343.98438 480.9875 343.98438 482.1906ZM350.29688 485.3L350.29688 479.08124L351.23438 479.08124L351.23438 479.95624Q351.92188 478.9406 353.21875 478.9406Q353.78125 478.9406 354.25 479.14374Q354.73438 479.34686 354.96875 479.675Q355.20312 480.0031 355.29688 480.4406Q355.34375 480.7375 355.34375 481.47186L355.34375 485.3L354.29688 485.3L354.29688 481.51874Q354.29688 480.8625 354.17188 480.55Q354.04688 480.2375 353.73438 480.05Q353.42188 479.84686 353.0 479.84686Q352.32812 479.84686 351.82812 480.28436Q351.34375 480.70624 351.34375 481.89374L351.34375 485.3L350.29688 485.3Z" fill-rule="nonzero"/><path fill="#000000" d="M36.69999 274.05106L30.481237 276.41043L30.481237 275.30106L34.19999 273.9573Q34.809364 273.75418 35.44999 273.56668Q34.965614 273.42606 34.278114 273.17606L30.481237 271.78543L30.481237 270.7073L36.69999 273.06668L36.69999 274.05106ZM35.934364 265.7073Q36.434364 266.30106 36.63749 266.84793Q36.840614 267.37918 36.840614 268.00418Q36.840614 269.03543 36.340614 269.5823Q35.840614 270.12918 35.059364 270.12918Q34.60624 270.12918 34.23124 269.92606Q33.840614 269.72293 33.621864 269.37918Q33.38749 269.03543 33.278114 268.61356Q33.184364 268.31668 33.10624 267.67606Q32.965614 266.41043 32.746864 265.80106Q32.528114 265.80106 32.48124 265.80106Q31.824987 265.80106 31.559362 266.09793Q31.215612 266.50418 31.215612 267.30106Q31.215612 268.03543 31.481237 268.3948Q31.731237 268.75418 32.38749 268.92606L32.246864 269.9573Q31.590612 269.81668 31.184362 269.48856Q30.778112 269.16043 30.559362 268.55106Q30.340612 267.94168 30.340612 267.1448Q30.340612 266.34793 30.528112 265.84793Q30.715612 265.34793 30.996862 265.11356Q31.278112 264.87918 31.715612 264.78543Q31.981237 264.73856 32.684364 264.73856L34.090614 264.73856Q35.559364 264.73856 35.94999 264.67606Q36.340614 264.59793 36.69999 264.3948L36.69999 265.50418Q36.371864 265.66043 35.934364 265.7073ZM33.57499 265.80106Q33.809364 266.37918 33.98124 267.5198Q34.07499 268.17606 34.19999 268.44168Q34.309364 268.7073 34.528114 268.86356Q34.746864 269.00418 35.028114 269.00418Q35.44999 269.00418 35.73124 268.69168Q36.01249 268.36356 36.01249 267.75418Q36.01249 267.1448 35.746864 266.67606Q35.48124 266.19168 35.01249 265.97293Q34.653114 265.80106 33.965614 265.80106L33.57499 265.80106ZM36.69999 262.80106L28.106237 262.80106L28.106237 261.73856L36.69999 261.73856L36.69999 262.80106ZM36.69999 255.69167L35.778114 255.69167Q36.840614 256.42606 36.840614 257.67606Q36.840614 258.22293 36.63749 258.7073Q36.41874 259.17606 36.10624 259.41043Q35.778114 259.6448 35.309364 259.73856Q35.01249 259.80106 34.32499 259.80106L30.481237 259.80106L30.481237 258.73856L33.934364 258.73856Q34.746864 258.73856 35.04374 258.67606Q35.44999 258.5823 35.69999 258.2698Q35.934364 257.94168 35.934364 257.4573Q35.934364 256.98856 35.69999 256.5823Q35.44999 256.16043 35.028114 255.98854Q34.60624 255.80104 33.809364 255.80104L30.481237 255.80104L30.481237 254.75417L36.69999 254.75417L36.69999 255.69167ZM34.69999 248.51979L34.82499 247.42604Q35.778114 247.67604 36.309364 248.37917Q36.840614 249.08229 36.840614 250.16042Q36.840614 251.51979 35.996864 252.33229Q35.153114 253.12917 33.63749 253.12917Q32.07499 253.12917 31.215612 252.31667Q30.340612 251.50417 30.340612 250.22292Q30.340612 248.97292 31.184362 248.19167Q32.028114 247.39479 33.57499 247.39479Q33.66874 247.39479 33.85624 247.39479L33.85624 252.03542Q34.88749 251.97292 35.434364 251.45729Q35.965614 250.94167 35.965614 250.16042Q35.965614 249.58229 35.66874 249.17604Q35.35624 248.75417 34.69999 248.51979ZM32.996864 251.97292L32.996864 248.50417Q32.19999 248.56667 31.809362 248.89479Q31.199987 249.41042 31.199987 250.20729Q31.199987 250.94167 31.684362 251.44167Q32.16874 251.92604 32.996864 251.97292Z" fill-rule="nonzero"/><path fill="#000000" d="M72.2 436.0656Q72.2 434.53436 72.5125 433.6125Q72.825 432.675 73.43437 432.175Q74.05937 431.675 74.99687 431.675Q75.68437 431.675 76.2 431.95624Q76.73125 432.2375 77.075 432.76874Q77.41875 433.28436 77.60625 434.03436Q77.79375 434.78436 77.79375 436.0656Q77.79375 437.58124 77.48125 438.5031Q77.18437 439.425 76.55937 439.9406Q75.95 440.4406 74.99687 440.4406Q73.7625 440.4406 73.04375 439.55Q72.2 438.4875 72.2 436.0656ZM73.27812 436.0656Q73.27812 438.175 73.77812 438.8781Q74.27812 439.58124 74.99687 439.58124Q75.73125 439.58124 76.21562 438.8781Q76.71562 438.175 76.71562 436.0656Q76.71562 433.9406 76.21562 433.2531Q75.73125 432.55 74.98125 432.55Q74.2625 432.55 73.825 433.15936Q73.27812 433.9406 73.27812 436.0656Z" fill-rule="nonzero"/><path fill="#000000" d="M70.74687 348.6677L70.74687 349.68332L65.05937 349.68332Q65.05937 349.30832 65.18437 348.94894Q65.40312 348.37082 65.87187 347.80832Q66.35625 347.24582 67.2625 346.51144Q68.66875 345.3552 69.15312 344.68332Q69.65312 344.01144 69.65312 343.4177Q69.65312 342.7927 69.2 342.37082Q68.74687 341.93332 68.02812 341.93332Q67.2625 341.93332 66.80937 342.38644Q66.35625 342.83957 66.34062 343.65207L65.2625 343.5427Q65.37187 342.32394 66.09062 341.69894Q66.825 341.05832 68.05937 341.05832Q69.29375 341.05832 70.0125 341.74582Q70.73125 342.43332 70.73125 343.44894Q70.73125 343.96457 70.5125 344.46457Q70.30937 344.94894 69.80937 345.51144Q69.325 346.05832 68.2 347.01144Q67.24687 347.80832 66.96562 348.1052Q66.7 348.38644 66.52812 348.6677L70.74687 348.6677ZM72.2 347.43332L73.30937 347.33957Q73.43437 348.15207 73.87187 348.55832Q74.325 348.96457 74.96562 348.96457Q75.71562 348.96457 76.24687 348.38644Q76.77812 347.80832 76.77812 346.87082Q76.77812 345.96457 76.2625 345.44894Q75.7625 344.9177 74.93437 344.9177Q74.43437 344.9177 74.0125 345.15207Q73.60625 345.38644 73.37187 345.74582L72.3875 345.62082L73.21562 341.21457L77.49687 341.21457L77.49687 342.21457L74.05937 342.21457L73.60625 344.52707Q74.37187 343.9802 75.21562 343.9802Q76.34062 343.9802 77.10625 344.76144Q77.8875 345.5427 77.8875 346.77707Q77.8875 347.93332 77.21562 348.7927Q76.3875 349.82394 74.96562 349.82394Q73.79375 349.82394 73.04375 349.1677Q72.30937 348.51144 72.2 347.43332Z" fill-rule="nonzero"/><path fill="#000000" d="M65.2 256.81668L66.30937 256.72293Q66.43437 257.53543 66.87187 257.94168Q67.325 258.34793 67.96562 258.34793Q68.71562 258.34793 69.24687 257.7698Q69.77812 257.19168 69.77812 256.25418Q69.77812 255.34793 69.2625 254.8323Q68.7625 254.30106 67.93437 254.30106Q67.43437 254.30106 67.0125 254.53543Q66.60625 254.7698 66.37187 255.12918L65.3875 255.00418L66.21562 250.59793L70.49687 250.59793L70.49687 251.59793L67.05937 251.59793L66.60625 253.91043Q67.37187 253.36356 68.21562 253.36356Q69.34062 253.36356 70.10625 254.1448Q70.8875 254.92606 70.8875 256.16043Q70.8875 257.31668 70.21562 258.17606Q69.3875 259.2073 67.96562 259.2073Q66.79375 259.2073 66.04375 258.55106Q65.30937 257.8948 65.2 256.81668ZM72.2 254.8323Q72.2 253.30106 72.5125 252.37918Q72.825 251.44168 73.43437 250.94168Q74.05937 250.44168 74.99687 250.44168Q75.68437 250.44168 76.2 250.72293Q76.73125 251.00418 77.075 251.53543Q77.41875 252.05106 77.60625 252.80106Q77.79375 253.55106 77.79375 254.8323Q77.79375 256.34793 77.48125 257.2698Q77.18437 258.19168 76.55937 258.7073Q75.95 259.2073 74.99687 259.2073Q73.7625 259.2073 73.04375 258.31668Q72.2 257.25418 72.2 254.8323ZM73.27812 254.8323Q73.27812 256.94168 73.77812 257.6448Q74.27812 258.34793 74.99687 258.34793Q75.73125 258.34793 76.21562 257.6448Q76.71562 256.94168 76.71562 254.8323Q76.71562 252.7073 76.21562 252.0198Q75.73125 251.31668 74.98125 251.31668Q74.2625 251.31668 73.825 251.92606Q73.27812 252.7073 73.27812 254.8323Z" fill-rule="nonzero"/><path fill="#000000" d="M65.2625 160.98125L65.2625 159.96562L70.825 159.96562L70.825 160.79375Q70.0125 161.66875 69.2 163.12187Q68.40312 164.55937 67.96562 166.09062Q67.6375 167.16875 67.55937 168.45L66.46562 168.45Q66.48125 167.43437 66.85625 165.99687Q67.24687 164.55937 67.95 163.23125Q68.66875 161.90312 69.48125 160.98125L65.2625 160.98125ZM72.2 166.2L73.30937 166.10625Q73.43437 166.91875 73.87187 167.325Q74.325 167.73125 74.96562 167.73125Q75.71562 167.73125 76.24687 167.15312Q76.77812 166.575 76.77812 165.6375Q76.77812 164.73125 76.2625 164.21562Q75.7625 163.68437 74.93437 163.68437Q74.43437 163.68437 74.0125 163.91875Q73.60625 164.15312 73.37187 164.5125L72.3875 164.3875L73.21562 159.98125L77.49687 159.98125L77.49687 160.98125L74.05937 160.98125L73.60625 163.29375Q74.37187 162.74687 75.21562 162.74687Q76.34062 162.74687 77.10625 163.52812Q77.8875 164.30937 77.8875 165.54375Q77.8875 166.7 77.21562 167.55937Q76.3875 168.59062 74.96562 168.59062Q73.79375 168.59062 73.04375 167.93437Q72.30937 167.27812 72.2 166.2Z" fill-rule="nonzero"/><path fill="#000000" d="M62.16875 77.833336L61.121876 77.833336L61.121876 71.114586Q60.73125 71.47396 60.10625 71.84896Q59.496876 72.208336 59.0125 72.38021L59.0125 71.364586Q59.8875 70.94271 60.54375 70.364586Q61.215626 69.770836 61.496876 69.208336L62.16875 69.208336L62.16875 77.833336ZM65.2 73.59896Q65.2 72.06771 65.5125 71.145836Q65.825 70.208336 66.43437 69.708336Q67.05937 69.208336 67.99687 69.208336Q68.68437 69.208336 69.2 69.489586Q69.73125 69.770836 70.075 70.302086Q70.41875 70.81771 70.60625 71.56771Q70.79375 72.31771 70.79375 73.59896Q70.79375 75.114586 70.48125 76.03646Q70.18437 76.958336 69.55937 77.47396Q68.95 77.97396 67.99687 77.97396Q66.7625 77.97396 66.04375 77.083336Q65.2 76.020836 65.2 73.59896ZM66.27812 73.59896Q66.27812 75.708336 66.77812 76.41146Q67.27812 77.114586 67.99687 77.114586Q68.73125 77.114586 69.21562 76.41146Q69.71562 75.708336 69.71562 73.59896Q69.71562 71.47396 69.21562 70.78646Q68.73125 70.083336 67.98125 70.083336Q67.2625 70.083336 66.825 70.69271Q66.27812 71.47396 66.27812 73.59896ZM72.2 73.59896Q72.2 72.06771 72.5125 71.145836Q72.825 70.208336 73.43437 69.708336Q74.05937 69.208336 74.99687 69.208336Q75.68437 69.208336 76.2 69.489586Q76.73125 69.770836 77.075 70.302086Q77.41875 70.81771 77.60625 71.56771Q77.79375 72.31771 77.79375 73.59896Q77.79375 75.114586 77.48125 76.03646Q77.18437 76.958336 76.55937 77.47396Q75.95 77.97396 74.99687 77.97396Q73.7625 77.97396 73.04375 77.083336Q72.2 76.020836 72.2 73.59896ZM73.27812 73.59896Q73.27812 75.708336 73.77812 76.41146Q74.27812 77.114586 74.99687 77.114586Q75.73125 77.114586 76.21562 76.41146Q76.71562 75.708336 76.71562 73.59896Q76.71562 71.47396 76.21562 70.78646Q75.73125 70.083336 74.98125 70.083336Q74.2625 70.083336 73.825 70.69271Q73.27812 71.47396 73.27812 73.59896Z" fill-rule="nonzero"/><path fill="#000000" d="M91.30753 449.0656Q91.30753 447.53436 91.62003 446.6125Q91.93253 445.675 92.54191 445.175Q93.16691 444.675 94.10441 444.675Q94.79191 444.675 95.30753 444.95624Q95.83878 445.2375 96.18253 445.76874Q96.52628 446.28436 96.71378 447.03436Q96.90128 447.78436 96.90128 449.0656Q96.90128 450.58124 96.58878 451.5031Q96.29191 452.425 95.66691 452.9406Q95.05753 453.4406 94.10441 453.4406Q92.87003 453.4406 92.15128 452.55Q91.30753 451.4875 91.30753 449.0656ZM92.38566 449.0656Q92.38566 451.175 92.88566 451.8781Q93.38566 452.58124 94.10441 452.58124Q94.83878 452.58124 95.32316 451.8781Q95.82316 451.175 95.82316 449.0656Q95.82316 446.9406 95.32316 446.2531Q94.83878 445.55 94.08878 445.55Q93.37003 445.55 92.93253 446.15936Q92.38566 446.9406 92.38566 449.0656Z" fill-rule="nonzero"/><path fill="#000000" d="M210.95064 452.28436L210.95064 453.3L205.26314 453.3Q205.26314 452.925 205.38814 452.5656Q205.60689 451.9875 206.07564 451.425Q206.56001 450.8625 207.46626 450.1281Q208.87251 448.97186 209.35689 448.3Q209.85689 447.6281 209.85689 447.03436Q209.85689 446.40936 209.40376 445.9875Q208.95064 445.55 208.23189 445.55Q207.46626 445.55 207.01314 446.0031Q206.56001 446.45624 206.54439 447.26874L205.46626 447.15936Q205.57564 445.9406 206.29439 445.3156Q207.02876 444.675 208.26314 444.675Q209.49751 444.675 210.21626 445.3625Q210.93501 446.05 210.93501 447.0656Q210.93501 447.58124 210.71626 448.08124Q210.51314 448.5656 210.01314 449.1281Q209.52876 449.675 208.40376 450.6281Q207.45064 451.425 207.16939 451.72186Q206.90376 452.0031 206.73189 452.28436L210.95064 452.28436ZM212.40376 451.05L213.51314 450.95624Q213.63814 451.76874 214.07564 452.175Q214.52876 452.58124 215.16939 452.58124Q215.91939 452.58124 216.45064 452.0031Q216.98189 451.425 216.98189 450.4875Q216.98189 449.58124 216.46626 449.0656Q215.96626 448.53436 215.13814 448.53436Q214.63814 448.53436 214.21626 448.76874Q213.81001 449.0031 213.57564 449.3625L212.59126 449.2375L213.41939 444.83124L217.70064 444.83124L217.70064 445.83124L214.26314 445.83124L213.81001 448.14374Q214.57564 447.59686 215.41939 447.59686Q216.54439 447.59686 217.31001 448.3781Q218.09126 449.15936 218.09126 450.39374Q218.09126 451.55 217.41939 452.40936Q216.59126 453.4406 215.16939 453.4406Q213.99751 453.4406 213.24751 452.78436Q212.51314 452.1281 212.40376 451.05Z" fill-rule="nonzero"/><path fill="#000000" d="M323.0 451.05L324.10938 450.95624Q324.23438 451.76874 324.67188 452.175Q325.125 452.58124 325.76562 452.58124Q326.51562 452.58124 327.04688 452.0031Q327.57812 451.425 327.57812 450.4875Q327.57812 449.58124 327.0625 449.0656Q326.5625 448.53436 325.73438 448.53436Q325.23438 448.53436 324.8125 448.76874Q324.40625 449.0031 324.17188 449.3625L323.1875 449.2375L324.01562 444.83124L328.29688 444.83124L328.29688 445.83124L324.85938 445.83124L324.40625 448.14374Q325.17188 447.59686 326.01562 447.59686Q327.14062 447.59686 327.90625 448.3781Q328.6875 449.15936 328.6875 450.39374Q328.6875 451.55 328.01562 452.40936Q327.1875 453.4406 325.76562 453.4406Q324.59375 453.4406 323.84375 452.78436Q323.10938 452.1281 323.0 451.05ZM330.0 449.0656Q330.0 447.53436 330.3125 446.6125Q330.625 445.675 331.23438 445.175Q331.85938 444.675 332.79688 444.675Q333.48438 444.675 334.0 444.95624Q334.53125 445.2375 334.875 445.76874Q335.21875 446.28436 335.40625 447.03436Q335.59375 447.78436 335.59375 449.0656Q335.59375 450.58124 335.28125 451.5031Q334.98438 452.425 334.35938 452.9406Q333.75 453.4406 332.79688 453.4406Q331.5625 453.4406 330.84375 452.55Q330.0 451.4875 330.0 449.0656ZM331.07812 449.0656Q331.07812 451.175 331.57812 451.8781Q332.07812 452.58124 332.79688 452.58124Q333.53125 452.58124 334.01562 451.8781Q334.51562 451.175 334.51562 449.0656Q334.51562 446.9406 334.01562 446.2531Q333.53125 445.55 332.78125 445.55Q332.0625 445.55 331.625 446.15936Q331.07812 446.9406 331.07812 449.0656Z" fill-rule="nonzero"/><path fill="#000000" d="M440.65872 445.83124L440.65872 444.8156L446.22122 444.8156L446.22122 445.64374Q445.40872 446.51874 444.59622 447.97186Q443.79935 449.40936 443.36185 450.9406Q443.03372 452.01874 442.9556 453.3L441.86185 453.3Q441.87747 452.28436 442.25247 450.84686Q442.6431 449.40936 443.34622 448.08124Q444.06497 446.7531 444.87747 445.83124L440.65872 445.83124ZM447.59622 451.05L448.7056 450.95624Q448.8306 451.76874 449.2681 452.175Q449.72122 452.58124 450.36185 452.58124Q451.11185 452.58124 451.6431 452.0031Q452.17435 451.425 452.17435 450.4875Q452.17435 449.58124 451.65872 449.0656Q451.15872 448.53436 450.3306 448.53436Q449.8306 448.53436 449.40872 448.76874Q449.00247 449.0031 448.7681 449.3625L447.78372 449.2375L448.61185 444.83124L452.8931 444.83124L452.8931 445.83124L449.4556 445.83124L449.00247 448.14374Q449.7681 447.59686 450.61185 447.59686Q451.73685 447.59686 452.50247 448.3781Q453.28372 449.15936 453.28372 450.39374Q453.28372 451.55 452.61185 452.40936Q451.78372 453.4406 450.36185 453.4406Q449.18997 453.4406 448.43997 452.78436Q447.7056 452.1281 447.59622 451.05Z" fill-rule="nonzero"/><path fill="#000000" d="M558.6612 453.3L557.6143 453.3L557.6143 446.58124Q557.2237 446.9406 556.5987 447.3156Q555.9893 447.675 555.50494 447.84686L555.50494 446.83124Q556.37994 446.40936 557.0362 445.83124Q557.70807 445.2375 557.9893 444.675L558.6612 444.675L558.6612 453.3ZM561.69244 449.0656Q561.69244 447.53436 562.00494 446.6125Q562.31744 445.675 562.9268 445.175Q563.5518 444.675 564.4893 444.675Q565.1768 444.675 565.69244 444.95624Q566.2237 445.2375 566.56744 445.76874Q566.9112 446.28436 567.0987 447.03436Q567.2862 447.78436 567.2862 449.0656Q567.2862 450.58124 566.9737 451.5031Q566.6768 452.425 566.0518 452.9406Q565.44244 453.4406 564.4893 453.4406Q563.25494 453.4406 562.5362 452.55Q561.69244 451.4875 561.69244 449.0656ZM562.77057 449.0656Q562.77057 451.175 563.27057 451.8781Q563.77057 452.58124 564.4893 452.58124Q565.2237 452.58124 565.70807 451.8781Q566.20807 451.175 566.20807 449.0656Q566.20807 446.9406 565.70807 446.2531Q565.2237 445.55 564.4737 445.55Q563.75494 445.55 563.31744 446.15936Q562.77057 446.9406 562.77057 449.0656ZM568.69244 449.0656Q568.69244 447.53436 569.00494 446.6125Q569.31744 445.675 569.9268 445.175Q570.5518 444.675 571.4893 444.675Q572.1768 444.675 572.69244 444.95624Q573.2237 445.2375 573.56744 445.76874Q573.9112 446.28436 574.0987 447.03436Q574.2862 447.78436 574.2862 449.0656Q574.2862 450.58124 573.9737 451.5031Q573.6768 452.425 573.0518 452.9406Q572.44244 453.4406 571.4893 453.4406Q570.25494 453.4406 569.5362 452.55Q568.69244 451.4875 568.69244 449.0656ZM569.77057 449.0656Q569.77057 451.175 570.27057 451.8781Q570.77057 452.58124 571.4893 452.58124Q572.2237 452.58124 572.70807 451.8781Q573.20807 451.175 573.20807 449.0656Q573.20807 446.9406 572.70807 446.2531Q572.2237 445.55 571.4737 445.55Q570.75494 445.55 570.31744 446.15936Q569.77057 446.9406 569.77057 449.0656Z" fill-rule="nonzero"/><path fill="#757575" d="M29.903126 44.7L25.95 34.325L27.809376 34.325L30.04375 40.54375Q30.403126 41.54375 30.7 42.621876Q30.934376 41.809376 31.35625 40.653126L33.653126 34.325L35.465626 34.325L31.54375 44.7L29.903126 44.7ZM43.79375 43.41875Q42.809376 44.246876 41.903126 44.590626Q40.996876 44.934376 39.965626 44.934376Q38.2625 44.934376 37.340626 44.10625Q36.41875 43.2625 36.41875 41.965626Q36.41875 41.2 36.7625 40.575Q37.121876 39.95 37.684376 39.575Q38.246876 39.184376 38.95 38.98125Q39.465626 38.85625 40.5125 38.715626Q42.6375 38.465626 43.6375 38.121876Q43.653126 37.7625 43.653126 37.653126Q43.653126 36.590626 43.153126 36.1375Q42.48125 35.54375 41.153126 35.54375Q39.903126 35.54375 39.309376 35.98125Q38.73125 36.41875 38.45 37.528126L36.73125 37.29375Q36.965626 36.184376 37.496876 35.5125Q38.028126 34.825 39.04375 34.465626Q40.059376 34.090626 41.403126 34.090626Q42.73125 34.090626 43.559376 34.403126Q44.3875 34.715626 44.778126 35.2Q45.16875 35.66875 45.325 36.3875Q45.41875 36.840626 45.41875 38.0125L45.41875 40.35625Q45.41875 42.809376 45.528126 43.465626Q45.6375 44.10625 45.98125 44.7L44.1375 44.7Q43.871876 44.153126 43.79375 43.41875ZM43.6375 39.496876Q42.684376 39.8875 40.7625 40.153126Q39.684376 40.309376 39.23125 40.5125Q38.79375 40.7 38.54375 41.075Q38.29375 41.45 38.29375 41.91875Q38.29375 42.621876 38.825 43.090626Q39.35625 43.559376 40.3875 43.559376Q41.403126 43.559376 42.184376 43.121876Q42.98125 42.66875 43.35625 41.903126Q43.6375 41.29375 43.6375 40.1375L43.6375 39.496876ZM47.98125 44.7L47.98125 30.3875L49.73125 30.3875L49.73125 44.7L47.98125 44.7ZM58.809376 44.7L58.809376 43.16875Q57.60625 44.934376 55.528126 44.934376Q54.60625 44.934376 53.809376 44.590626Q53.0125 44.23125 52.621876 43.7Q52.246876 43.16875 52.090626 42.3875Q51.98125 41.871876 51.98125 40.746876L51.98125 34.325L53.73125 34.325L53.73125 40.075Q53.73125 41.45 53.840626 41.934376Q54.0125 42.621876 54.54375 43.028126Q55.090626 43.41875 55.871876 43.41875Q56.66875 43.41875 57.35625 43.0125Q58.059376 42.60625 58.340626 41.91875Q58.6375 41.215626 58.6375 39.8875L58.6375 34.325L60.3875 34.325L60.3875 44.7L58.809376 44.7ZM70.12187 41.35625L71.93437 41.590626Q71.5125 43.16875 70.34062 44.059376Q69.18437 44.934376 67.37187 44.934376Q65.10625 44.934376 63.7625 43.54375Q62.434376 42.1375 62.434376 39.60625Q62.434376 36.98125 63.778126 35.54375Q65.12187 34.090626 67.27812 34.090626Q69.35625 34.090626 70.66875 35.5125Q71.99687 36.91875 71.99687 39.496876Q71.99687 39.653126 71.98125 39.965626L64.24687 39.965626Q64.34062 41.66875 65.21562 42.575Q66.09062 43.48125 67.3875 43.48125Q68.35625 43.48125 69.02812 42.98125Q69.71562 42.465626 70.12187 41.35625ZM64.34062 38.5125L70.1375 38.5125Q70.02812 37.215626 69.48125 36.559376Q68.6375 35.54375 67.29375 35.54375Q66.09062 35.54375 65.2625 36.35625Q64.43437 37.153126 64.34062 38.5125ZM82.90312 44.7L78.95 34.325L80.80937 34.325L83.04375 40.54375Q83.40312 41.54375 83.7 42.621876Q83.93437 41.809376 84.35625 40.653126L86.65312 34.325L88.46562 34.325L84.54375 44.7L82.90312 44.7ZM89.30937 41.60625L91.05937 41.325Q91.2 42.371876 91.87187 42.934376Q92.54375 43.48125 93.74687 43.48125Q94.95 43.48125 95.52812 42.996876Q96.12187 42.496876 96.12187 41.840626Q96.12187 41.246876 95.60625 40.903126Q95.24687 40.66875 93.80937 40.309376Q91.87187 39.809376 91.12187 39.465626Q90.3875 39.10625 89.99687 38.48125Q89.60625 37.840626 89.60625 37.075Q89.60625 36.3875 89.91875 35.79375Q90.24687 35.2 90.79375 34.809376Q91.2 34.5125 91.90312 34.309376Q92.62187 34.090626 93.43437 34.090626Q94.65312 34.090626 95.575 34.45Q96.49687 34.79375 96.93437 35.403126Q97.37187 35.996876 97.54375 36.996876L95.825 37.23125Q95.7 36.434376 95.1375 35.996876Q94.575 35.54375 93.55937 35.54375Q92.34062 35.54375 91.825 35.95Q91.30937 36.340626 91.30937 36.871876Q91.30937 37.215626 91.52812 37.496876Q91.73125 37.778126 92.2 37.965626Q92.46562 38.059376 93.74687 38.403126Q95.62187 38.903126 96.35625 39.23125Q97.09062 39.54375 97.5125 40.153126Q97.93437 40.746876 97.93437 41.653126Q97.93437 42.528126 97.41875 43.309376Q96.90312 44.090626 95.93437 44.5125Q94.96562 44.934376 93.74687 44.934376Q91.73125 44.934376 90.66875 44.090626Q89.60625 43.246876 89.30937 41.60625ZM100.5125 44.7L100.5125 42.7L102.5125 42.7L102.5125 44.7L100.5125 44.7ZM111.30937 41.60625L113.05937 41.325Q113.2 42.371876 113.87187 42.934376Q114.54375 43.48125 115.74687 43.48125Q116.95 43.48125 117.52812 42.996876Q118.12187 42.496876 118.12187 41.840626Q118.12187 41.246876 117.60625 40.903126Q117.24687 40.66875 115.80937 40.309376Q113.87187 39.809376 113.12187 39.465626Q112.3875 39.10625 111.99687 38.48125Q111.60625 37.840626 111.60625 37.075Q111.60625 36.3875 111.91875 35.79375Q112.24687 35.2 112.79375 34.809376Q113.2 34.5125 113.90312 34.309376Q114.62187 34.090626 115.43437 34.090626Q116.65312 34.090626 117.575 34.45Q118.49687 34.79375 118.93437 35.403126Q119.37187 35.996876 119.54375 36.996876L117.825 37.23125Q117.7 36.434376 117.1375 35.996876Q116.575 35.54375 115.55937 35.54375Q114.34062 35.54375 113.825 35.95Q113.30937 36.340626 113.30937 36.871876Q113.30937 37.215626 113.52812 37.496876Q113.73125 37.778126 114.2 37.965626Q114.46562 38.059376 115.74687 38.403126Q117.62187 38.903126 118.35625 39.23125Q119.09062 39.54375 119.5125 40.153126Q119.93437 40.746876 119.93437 41.653126Q119.93437 42.528126 119.41875 43.309376Q118.90312 44.090626 117.93437 44.5125Q116.96562 44.934376 115.74687 44.934376Q113.73125 44.934376 112.66875 44.090626Q111.60625 43.246876 111.30937 41.60625ZM128.79375 43.41875Q127.80937 44.246876 126.90312 44.590626Q125.99687 44.934376 124.96562 44.934376Q123.2625 44.934376 122.34062 44.10625Q121.41875 43.2625 121.41875 41.965626Q121.41875 41.2 121.7625 40.575Q122.12187 39.95 122.68437 39.575Q123.24687 39.184376 123.95 38.98125Q124.46562 38.85625 125.5125 38.715626Q127.6375 38.465626 128.6375 38.121876Q128.65312 37.7625 128.65312 37.653126Q128.65312 36.590626 128.15312 36.1375Q127.48125 35.54375 126.15312 35.54375Q124.90312 35.54375 124.30937 35.98125Q123.73125 36.41875 123.45 37.528126L121.73125 37.29375Q121.96562 36.184376 122.49687 35.5125Q123.02812 34.825 124.04375 34.465626Q125.05937 34.090626 126.40312 34.090626Q127.73125 34.090626 128.55937 34.403126Q129.3875 34.715626 129.77812 35.2Q130.16875 35.66875 130.325 36.3875Q130.41875 36.840626 130.41875 38.0125L130.41875 40.35625Q130.41875 42.809376 130.52812 43.465626Q130.6375 44.10625 130.98125 44.7L129.1375 44.7Q128.87187 44.153126 128.79375 43.41875ZM128.6375 39.496876Q127.68437 39.8875 125.7625 40.153126Q124.68437 40.309376 124.23125 40.5125Q123.79375 40.7 123.54375 41.075Q123.29375 41.45 123.29375 41.91875Q123.29375 42.621876 123.825 43.090626Q124.35625 43.559376 125.3875 43.559376Q126.40312 43.559376 127.18437 43.121876Q127.98125 42.66875 128.35625 41.903126Q128.6375 41.29375 128.6375 40.1375L128.6375 39.496876ZM136.85625 43.121876L137.10625 44.684376Q136.37187 44.840626 135.77812 44.840626Q134.825 44.840626 134.29375 44.54375Q133.77812 44.23125 133.55937 43.746876Q133.34062 43.246876 133.34062 41.66875L133.34062 35.7L132.05937 35.7L132.05937 34.325L133.34062 34.325L133.34062 31.7625L135.09062 30.7L135.09062 34.325L136.85625 34.325L136.85625 35.7L135.09062 35.7L135.09062 41.7625Q135.09062 42.5125 135.18437 42.73125Q135.27812 42.934376 135.48125 43.075Q135.7 43.2 136.09062 43.2Q136.37187 43.2 136.85625 43.121876ZM145.80937 44.7L145.80937 43.16875Q144.60625 44.934376 142.52812 44.934376Q141.60625 44.934376 140.80937 44.590626Q140.0125 44.23125 139.62187 43.7Q139.24687 43.16875 139.09062 42.3875Q138.98125 41.871876 138.98125 40.746876L138.98125 34.325L140.73125 34.325L140.73125 40.075Q140.73125 41.45 140.84062 41.934376Q141.0125 42.621876 141.54375 43.028126Q142.09062 43.41875 142.87187 43.41875Q143.66875 43.41875 144.35625 43.0125Q145.05937 42.60625 145.34062 41.91875Q145.6375 41.215626 145.6375 39.8875L145.6375 34.325L147.3875 34.325L147.3875 44.7L145.80937 44.7ZM149.99687 44.7L149.99687 34.325L151.575 34.325L151.575 35.903126Q152.18437 34.79375 152.7 34.45Q153.21562 34.090626 153.825 34.090626Q154.71562 34.090626 155.6375 34.653126L155.02812 36.29375Q154.3875 35.903126 153.74687 35.903126Q153.16875 35.903126 152.7 36.2625Q152.24687 36.60625 152.04375 37.215626Q151.7625 38.153126 151.7625 39.2625L151.7625 44.7L149.99687 44.7ZM163.79375 43.41875Q162.80937 44.246876 161.90312 44.590626Q160.99687 44.934376 159.96562 44.934376Q158.2625 44.934376 157.34062 44.10625Q156.41875 43.2625 156.41875 41.965626Q156.41875 41.2 156.7625 40.575Q157.12187 39.95 157.68437 39.575Q158.24687 39.184376 158.95 38.98125Q159.46562 38.85625 160.5125 38.715626Q162.6375 38.465626 163.6375 38.121876Q163.65312 37.7625 163.65312 37.653126Q163.65312 36.590626 163.15312 36.1375Q162.48125 35.54375 161.15312 35.54375Q159.90312 35.54375 159.30937 35.98125Q158.73125 36.41875 158.45 37.528126L156.73125 37.29375Q156.96562 36.184376 157.49687 35.5125Q158.02812 34.825 159.04375 34.465626Q160.05937 34.090626 161.40312 34.090626Q162.73125 34.090626 163.55937 34.403126Q164.3875 34.715626 164.77812 35.2Q165.16875 35.66875 165.325 36.3875Q165.41875 36.840626 165.41875 38.0125L165.41875 40.35625Q165.41875 42.809376 165.52812 43.465626Q165.6375 44.10625 165.98125 44.7L164.1375 44.7Q163.87187 44.153126 163.79375 43.41875ZM163.6375 39.496876Q162.68437 39.8875 160.7625 40.153126Q159.68437 40.309376 159.23125 40.5125Q158.79375 40.7 158.54375 41.075Q158.29375 41.45 158.29375 41.91875Q158.29375 42.621876 158.825 43.090626Q159.35625 43.559376 160.3875 43.559376Q161.40312 43.559376 162.18437 43.121876Q162.98125 42.66875 163.35625 41.903126Q163.6375 41.29375 163.6375 40.1375L163.6375 39.496876ZM171.85625 43.121876L172.10625 44.684376Q171.37187 44.840626 170.77812 44.840626Q169.825 44.840626 169.29375 44.54375Q168.77812 44.23125 168.55937 43.746876Q168.34062 43.246876 168.34062 41.66875L168.34062 35.7L167.05937 35.7L167.05937 34.325L168.34062 34.325L168.34062 31.7625L170.09062 30.7L170.09062 34.325L171.85625 34.325L171.85625 35.7L170.09062 35.7L170.09062 41.7625Q170.09062 42.5125 170.18437 42.73125Q170.27812 42.934376 170.48125 43.075Q170.7 43.2 171.09062 43.2Q171.37187 43.2 171.85625 43.121876ZM174.02812 32.403126L174.02812 30.3875L175.79375 30.3875L175.79375 32.403126L174.02812 32.403126ZM174.02812 44.7L174.02812 34.325L175.79375 34.325L175.79375 44.7L174.02812 44.7ZM177.37187 39.5125Q177.37187 36.6375 178.96562 35.246876Q180.30937 34.090626 182.23125 34.090626Q184.37187 34.090626 185.71562 35.496876Q187.075 36.903126 187.075 39.371876Q187.075 41.371876 186.48125 42.528126Q185.8875 43.66875 184.73125 44.309376Q183.59062 44.934376 182.23125 44.934376Q180.04375 44.934376 178.7 43.54375Q177.37187 42.1375 177.37187 39.5125ZM179.16875 39.5125Q179.16875 41.5125 180.02812 42.496876Q180.90312 43.48125 182.23125 43.48125Q183.54375 43.48125 184.40312 42.496876Q185.27812 41.496876 185.27812 39.45Q185.27812 37.528126 184.40312 36.54375Q183.52812 35.54375 182.23125 35.54375Q180.90312 35.54375 180.02812 36.54375Q179.16875 37.528126 179.16875 39.5125ZM189.0125 44.7L189.0125 34.325L190.60625 34.325L190.60625 35.809376Q191.74687 34.090626 193.90312 34.090626Q194.84062 34.090626 195.62187 34.434376Q196.41875 34.7625 196.80937 35.309376Q197.2 35.85625 197.35625 36.60625Q197.45 37.10625 197.45 38.325L197.45 44.7L195.68437 44.7L195.68437 38.3875Q195.68437 37.309376 195.48125 36.778126Q195.27812 36.246876 194.74687 35.934376Q194.23125 35.621876 193.52812 35.621876Q192.40312 35.621876 191.59062 36.340626Q190.77812 37.04375 190.77812 39.028126L190.77812 44.7L189.0125 44.7Z" fill-rule="nonzero"/></svg>