<svg viewBox="0 0 100 14.000000000000002" width="720" height="100.80000000000001" xmlns="http://www.w3.org/2000/svg">
<defs>
<linearGradient id="myGradient">
<stop offset="0%" stop-color="black" />
<stop offset="100%" stop-color="white" />
</linearGradient>
</defs>
<rect x="0" y="0" width="100" height="14.000000000000002" fill="url('#myGradient')" />
<polyline points="0,9.000000000000002 1,9.000000000000002 2,9.000000000000002 3,9.000000000000002 4,9.000000000000002 5,9.000000000000002 6,9.000000000000002 7,9.000000000000002 8,9.000000000000002 9,9.000000000000002 10,9.000000000000002 11,9.000000000000002 12,9.000000000000002 13,9.000000000000002 14,9.000000000000002 15,9.000000000000002 16,9.000000000000002 17,9.000000000000002 18,9.000000000000002 19,9.000000000000002 20,9.000000000000002 21,9.000000000000002 22,9.000000000000002 23,9.000000000000002 24,9.000000000000002 25,9.000000000000002 26,9.000000000000002 27,9.000000000000002 28,9.000000000000002 29,9.000000000000002 30,9.000000000000002 31,9.000000000000002 32,9.000000000000002 33,9.000000000000002 34,9.000000000000002 35,9.000000000000002 36,9.000000000000002 37,9.000000000000002 38,9.000000000000002 39,9.000000000000002 40,9.000000000000002 41,9.000000000000002 42,9.000000000000002 43,9.000000000000002 44,9.000000000000002 45,9.000000000000002 46,9.000000000000002 47,9.000000000000002 48,9.000000000000002 49,9.000000000000002 50,9.000000000000002 51,9.000000000000002 52,9.000000000000002 53,9.000000000000002 54,9.000000000000002 55,9.000000000000002 56,9.000000000000002 57,9.000000000000002 58,9.000000000000002 59,9.000000000000002 60,9.000000000000002 61,9.000000000000002 62,9.000000000000002 63,9.000000000000002 64,9.000000000000002 65,9.000000000000002 66,9.000000000000002 67,9.000000000000002 68,9.000000000000002 69,9.000000000000002 70,9.000000000000002 71,9.000000000000002 72,9.000000000000002 73,9.000000000000002 74,9.000000000000002 75,9.000000000000002 76,9.000000000000002 77,9.000000000000002 78,9.000000000000002 79,9.000000000000002 80,9.000000000000002 81,9.000000000000002 82,9.000000000000002 83,9.000000000000002 84,9.000000000000002 85,9.000000000000002 86,9.000000000000002 87,9.000000000000002 88,9.000000000000002 89,9.000000000000002 90,9.000000000000002 91,9.000000000000002 92,9.000000000000002 93,9.000000000000002 94,9.000000000000002 95,9.000000000000002 96,9.000000000000002 97,9.000000000000002 98,9.000000000000002 99,9.250000000000002 100,9.500000000000002"
fill="none" stroke-width="0.5%" stroke="blue" />
</svg>
